<svg id="svg" version="1.1" xmlns="http://www.w3.org/2000/svg" style="display: block; background: rgb(0, 0, 0);" viewBox="0 0 431 117"><path d="M0 0 C3.56146419 -0.1350176 7.12438687 -0.23199067 10.6875 -0.3125 C12.67136719 -0.37050781 14.65523438 -0.42851563 16.69921875 -0.48828125 C18.44847656 -0.32714844 20.19773437 -0.16601562 22 0 C23.65 1.65 25.3 3.3 27 5 C27 7.64 27 10.28 27 13 C25.35 14.65 23.7 16.3 22 18 C16.69921875 18.48828125 16.69921875 18.48828125 10.6875 18.3125 C8.69074219 18.26738281 6.69398438 18.22226563 4.63671875 18.17578125 C3.10660156 18.11777344 1.57648438 18.05976562 0 18 C0 12.06 0 6.12 0 0 Z " transform="translate(363,63)" style="fill: #FFFFFF;"/><path d="M0 0 C15.25 -0.25 15.25 -0.25 22 2 C22.66 2.66 23.32 3.32 24 4 C24 6.97 24 9.94 24 13 C22.68 13.99 21.36 14.98 20 16 C13.31542071 16.41093725 6.70299075 16.12890367 0 16 C0 10.72 0 5.44 0 0 Z " transform="translate(363,35)" style="fill: #FFFFFF;"/><path d="M0 0 C5.61 0 11.22 0 17 0 C17.05423056 7.35426696 17.09379018 14.70812886 17.125 22.0625 C17.14175781 24.13080078 17.15851563 26.19910156 17.17578125 28.33007812 C17.21099356 39.40435117 16.93862126 50.0548675 15 61 C12.875 66.5625 12.875 66.5625 10 71 C7.36 72.98 4.72 74.96 2 77 C-0.475 77.495 -0.475 77.495 -3 78 C-9.8125 75.1875 -9.8125 75.1875 -16 72 C-16 71.34 -16 70.68 -16 70 C-14.4325 69.01 -12.865 68.02 -11.25 67 C-9.5175 65.68 -7.785 64.36 -6 63 C-3.23007642 58.36711138 -3.23007642 58.36711138 -2 53 C-0.77514223 41.95040277 -0.67287224 30.85493965 -0.4375 19.75 C-0.39431641 17.84863281 -0.35113281 15.94726562 -0.30664062 13.98828125 C-0.20120294 9.32559263 -0.1001608 4.66280496 0 0 Z " transform="translate(65,30)" style="fill: #FFFFFF;"/><path d="M0 0 C8 3 8 3 15 9 C19 17 19 17 20 22 C20.26418925 28.01030535 20.13228164 33.34637307 18.9375 39.25 C17 44 17 44 13.8125 48.375 C10 52 10 52 2 56 C-3.46218495 57.36554624 -8.37936419 57.22259944 -14 57 C-23 54 -23 54 -27.3125 50.8125 C-31 47 -31 47 -35 39 C-36.11678109 33.41609456 -36.30291322 28.69476848 -36 23 C-34.375 17.25 -34.375 17.25 -32 12 C-26 5 -26 5 -19 1 C-12.64008821 -0.58997795 -6.52418574 -0.2104576 0 0 Z M-9 13 C-10.98 13.99 -12.96 14.98 -15 16 C-18.23810397 20.73452563 -18.23810397 20.73452563 -18.875 25.75 C-19.31441321 31.75035771 -19.31441321 31.75035771 -16 40 C-14.68 40.99 -13.36 41.98 -12 43 C-9.36 43 -6.72 43 -4 43 C-2.35 41.35 -0.7 39.7 1 38 C1.66 36.35 2.32 34.7 3 33 C3 30.03 3 27.06 3 24 C2.01 21.69 1.02 19.38 0 17 C-0.99 16.01 -1.98 15.02 -3 14 C-5.97 13.505 -5.97 13.505 -9 13 Z " transform="translate(294,29)" style="fill: #FFFFFF;"/><path d="M0 0 C-1 5 -1 5 -5 13 C-6.32 12.67 -7.64 12.34 -9 12 C-8.89171875 14.10375 -8.89171875 14.10375 -8.78125 16.25 C-7.12355058 50.1407437 -7.12355058 50.1407437 -10 64 C-12.6875 69.5625 -12.6875 69.5625 -16 74 C-23 79 -23 79 -27.4375 80.8125 C-36.71849598 82.79383622 -45.60373591 82.31839976 -55 81.4375 C-56.32 80.633125 -57.64 79.82875 -59 79 C-59.625 71.3125 -59.625 71.3125 -59 64 C-56.855 64.495 -54.71 64.99 -52.5 65.5 C-44.96731398 67.26148818 -44.96731398 67.26148818 -37 67 C-34.36 66.01 -31.72 65.02 -29 64 C-25.73042131 58.19605723 -25.73042131 58.19605723 -25 52 C-26.65 52.66 -28.3 53.32 -30 54 C-35.8125 54.3125 -35.8125 54.3125 -42 54 C-50 51 -50 51 -55 47 C-59 40 -59 40 -61 33 C-61 24 -61 24 -59.9375 18.9375 C-58 14 -58 14 -54.6875 9.625 C-51 6 -51 6 -45 2 C-29.8162502 -3.06124993 -15.70946343 -2.88909672 0 0 Z M-33 12 C-34.98 12.99 -36.96 13.98 -39 15 C-40.98 17.97 -40.98 17.97 -43 21 C-43.58336465 27.04188708 -43.58336465 27.04188708 -43 33 C-42.01 34.65 -41.02 36.3 -40 38 C-39.01 38.66 -38.02 39.32 -37 40 C-33.33536867 40.12215438 -29.66443777 40.12782922 -26 40 C-25.67 39.67 -25.34 39.34 -25 39 C-24.92647555 34.47971658 -24.91647287 29.95833244 -24.9375 25.4375 C-24.94652344 22.94058594 -24.95554687 20.44367187 -24.96484375 17.87109375 C-24.97644531 15.93363281 -24.98804688 13.99617188 -25 12 C-27.64 12 -30.28 12 -33 12 Z " transform="translate(259,31)" style="fill: #FFFFFF;"/><path d="M0 0 C9 3 9 3 14 7 C16 11 16 11 17 17 C17.09653188 23.44208352 17.13917325 29.87075577 17.125 36.3125 C17.13080078 38.97795898 17.13080078 38.97795898 17.13671875 41.69726562 C17.13332458 46.1317433 17.07182111 50.56610267 17 55 C16.67 55.33 16.34 55.66 16 56 C10.66682691 56.04134243 5.33316801 56.04199345 0 56 C-0.06058594 53.37546875 -0.12117188 50.7509375 -0.18359375 48.046875 C-0.26799451 44.61457755 -0.35264274 41.18228619 -0.4375 37.75 C-0.47681641 36.01878906 -0.51613281 34.28757813 -0.55664062 32.50390625 C-0.63021915 23.67771268 -0.63021915 23.67771268 -2 15 C-6.95 15 -11.9 15 -17 15 C-17 28.53 -17 42.06 -17 56 C-22.28 56 -27.56 56 -33 56 C-33.33 55.67 -33.66 55.34 -34 55 C-34.51282265 46.54885662 -34.60515954 38.08911458 -34.75 29.625 C-34.83765625 27.2221875 -34.9253125 24.819375 -35.015625 22.34375 C-35.0465625 20.05695312 -35.0775 17.77015625 -35.109375 15.4140625 C-35.16061523 13.2995166 -35.21185547 11.1849707 -35.26464844 9.00634766 C-34.84731445 7.35425293 -34.42998047 5.7021582 -34 4 C-23.24754754 -0.5066178 -11.50932013 -0.35413293 0 0 Z " transform="translate(176,29)" style="fill: #FFFFFF;"/><path d="M0 0 C2.64 0.99 5.28 1.98 8 3 C9.32 4.65 10.64 6.3 12 8 C14.03086892 16.12347567 13.40122842 24.77880129 13.5 33.125 C13.55414063 35.09339844 13.60828125 37.06179687 13.6640625 39.08984375 C13.71875 44.7578125 13.71875 44.7578125 13 54 C5.77918227 56.06309078 0.04894968 56.33397836 -7.4375 56.375 C-9.78746094 56.40335938 -12.13742188 56.43171875 -14.55859375 56.4609375 C-17.74708984 56.23277344 -17.74708984 56.23277344 -21 56 C-23.64 54.68 -26.28 53.36 -29 52 C-29.99 50.35 -30.98 48.7 -32 47 C-32.4375 41.125 -32.4375 41.125 -32 35 C-30.68 32.69 -29.36 30.38 -28 28 C-20.42650105 24.21325053 -14.25256717 22.54253592 -6 21 C-5.01 21 -4.02 21 -3 21 C-3.66 18.69 -4.32 16.38 -5 14 C-13.21069476 14 -17.56412301 14.4878794 -25 17 C-26.32 17.33 -27.64 17.66 -29 18 C-29.625 11.75 -29.625 11.75 -29 5 C-19.86958795 -0.35650841 -10.38064489 -0.36106591 0 0 Z M-14 34 C-14.99 34.99 -15.98 35.98 -17 37 C-17 38.65 -17 40.3 -17 42 C-15.68 42.99 -14.36 43.98 -13 45 C-6.44464865 45.28295823 -6.44464865 45.28295823 -2 44 C-1.66664864 37.95826111 -1.66664864 37.95826111 -2 32 C-6.04849721 31.89153477 -6.04849721 31.89153477 -14 34 Z " transform="translate(121,29)" style="fill: #FFFFFF;"/><path d="M0 0 C5.61 0 11.22 0 17 0 C17 5.61 17 11.22 17 17 C11.39 17 5.78 17 0 17 C0 11.39 0 5.78 0 0 Z " transform="translate(65,4)" style="fill: #FFFFFF;"/><path d="M0 0 C5.61 0 11.22 0 17 0 C17.22182416 11.21406428 17.38550017 22.42698037 17.49438477 33.64257812 C17.53975506 37.46083809 17.60125148 41.27894085 17.67895508 45.09667969 C17.78765057 50.57265905 17.83906682 56.04657961 17.87890625 61.5234375 C17.9260376 64.82263184 17.97316895 68.12182617 18.02172852 71.52099609 C17.68455811 73.98906738 17.3473877 76.45713867 17 79 C6.13888395 81.41358134 -3.91746154 81.63575468 -15 81 C-21.625 79.3125 -21.625 79.3125 -26 77 C-31 72 -31 72 -35 66 C-36.85817154 57.63822806 -37.13568452 52.35539324 -36 44 C-32 36 -32 36 -25 29 C-19.875 26.5625 -19.875 26.5625 -14 25 C-6.8125 24.75 -6.8125 24.75 -1 25 C-0.67 16.75 -0.34 8.5 0 0 Z M-11 39 C-13.97 40.98 -13.97 40.98 -17 43 C-17.66 44.32 -18.32 45.64 -19 47 C-19.41668915 52.95822059 -19.41668915 52.95822059 -19 59 C-18.01 60.65 -17.02 62.3 -16 64 C-14.68 64.99 -13.36 65.98 -12 67 C-9.03 67.33 -6.06 67.66 -3 68 C-2.01 67.67 -1.02 67.34 0 67 C0.2204675 62.31727039 0.25056044 57.62499249 0.1875 52.9375 C0.16042969 50.34777344 0.13335937 47.75804687 0.10546875 45.08984375 C0.07066406 43.08019531 0.03585938 41.07054687 0 39 C-5.24947973 38.66589149 -5.24947973 38.66589149 -11 39 Z " transform="translate(37,4)" style="fill: #FFFFFF;"/><path d="M0 0 C7.19471698 -0.31002829 14.30027346 -0.44376372 21.49609375 -0.43359375 C23.62780533 -0.4388356 25.75951691 -0.44407745 27.95582581 -0.44947815 C32.46737227 -0.45590701 36.97893548 -0.4545503 41.49047852 -0.44604492 C48.4060644 -0.43753867 55.32082397 -0.46628485 62.23632812 -0.49804688 C66.61458308 -0.49965894 70.99283951 -0.49908126 75.37109375 -0.49609375 C78.48374916 -0.51294472 78.48374916 -0.51294472 81.6592865 -0.53013611 C86.77584939 -0.50520742 91.89048764 -0.26966761 97 0 C98.98 1.32 100.96 2.64 103 4 C103.99 5.65 104.98 7.3 106 9 C106.31002829 16.19471698 106.44376372 23.30027346 106.43359375 30.49609375 C106.4388356 32.62780533 106.44407745 34.75951691 106.44947815 36.95582581 C106.45590701 41.46737227 106.4545503 45.97893548 106.44604492 50.49047852 C106.43753867 57.4060644 106.46628485 64.32082397 106.49804688 71.23632812 C106.49965894 75.61458308 106.49908126 79.99283951 106.49609375 84.37109375 C106.50732773 86.44619736 106.51856171 88.52130096 106.53013611 90.6592865 C106.50520742 95.77584939 106.26966761 100.89048764 106 106 C104.68 107.98 103.36 109.96 102 112 C100.35 112.99 98.7 113.98 97 115 C89.81703778 115.32222354 82.72364838 115.46805227 75.5390625 115.46875 C73.4097226 115.47636353 71.28038269 115.48397705 69.08651733 115.49182129 C64.57917454 115.50263625 60.07180665 115.50546979 55.56445312 115.50097656 C48.65973184 115.50000489 41.75612311 115.54160803 34.8515625 115.5859375 C30.47656482 115.59114457 26.10156327 115.59383269 21.7265625 115.59375 C19.65662018 115.61014526 17.58667786 115.62654053 15.45401001 115.64343262 C10.29827057 115.61851433 5.14528728 115.32907274 0 115 C-2.31 113.35 -4.62 111.7 -7 110 C-7.66 108.68 -8.32 107.36 -9 106 C-9.22411987 98.85415445 -9.32829853 91.7484934 -9.3359375 84.6015625 C-9.3425943 82.46843597 -9.3492511 80.33530945 -9.35610962 78.13754272 C-9.36624817 73.62002425 -9.37092627 69.10249077 -9.37060547 64.58496094 C-9.37497755 57.66055717 -9.41128688 50.73679088 -9.44921875 43.8125 C-9.45508666 39.42968969 -9.45905622 35.04687634 -9.4609375 30.6640625 C-9.47530853 28.58582184 -9.48967957 26.50758118 -9.50448608 24.36636353 C-9.48813549 19.24150875 -9.26114721 14.11822293 -9 9 C-7.68 7.02 -6.36 5.04 -5 3 C-3.35 2.01 -1.7 1.02 0 0 Z M23 22 C23 45.43 23 68.86 23 93 C32.5596875 93.12375 32.5596875 93.12375 42.3125 93.25 C45.29470581 93.30462402 45.29470581 93.30462402 48.3371582 93.36035156 C55.72572265 93.40657902 62.38419604 93.16600573 69.53515625 91.23828125 C74.26953029 89.15165668 74.26953029 89.15165668 78.125 84.9375 C81.05384045 81.34521228 81.05384045 81.34521228 82 78 C82.33349569 72.12521706 82.33349569 72.12521706 82 66 C81.01 64.02 80.02 62.04 79 60 C77.02 58.35 75.04 56.7 73 55 C72.34 55 71.68 55 71 55 C71 54.34 71 53.68 71 53 C72.32 52.34 73.64 51.68 75 51 C78.05270463 47.36893239 78.05270463 47.36893239 79 44 C79 40.7 79 37.4 79 34 C76.525 30.04 76.525 30.04 74 26 C69.89092317 23.16170456 69.89092317 23.16170456 64 22 C56.88489724 21.72053799 49.97743954 21.62379894 42.875 21.75 C33.036875 21.87375 33.036875 21.87375 23 22 Z " transform="translate(324,1)" style="fill: #FFFFFF;"/></svg>